<svg xmlns="http://www.w3.org/2000/svg" width="17.155" height="17.155" viewBox="0 0 17.155 17.155"><path d="M9.14.563A8.578,8.578,0,1,0,17.718,9.14,8.579,8.579,0,0,0,9.14.563Zm0,3.8A1.453,1.453,0,1,1,7.687,5.82,1.453,1.453,0,0,1,9.14,4.367Zm1.937,8.785a.415.415,0,0,1-.415.415H7.618a.415.415,0,0,1-.415-.415v-.83a.415.415,0,0,1,.415-.415h.415V9.693H7.618A.415.415,0,0,1,7.2,9.278v-.83a.415.415,0,0,1,.415-.415H9.832a.415.415,0,0,1,.415.415v3.459h.415a.415.415,0,0,1,.415.415Z" transform="translate(-0.563 -0.563)" fill="#aaa"/></svg>