<svg xmlns="http://www.w3.org/2000/svg" width="19.155" height="19.155" viewBox="0 0 19.155 19.155"><path d="M16.167,13.333A2.833,2.833,0,1,1,13.333,10.5,2.833,2.833,0,0,1,16.167,13.333Z" transform="translate(-3.756 -3.756)" fill="none" stroke="#aaa" stroke-linecap="round" stroke-linejoin="round" stroke-width="3"/><path d="M18,1.5V2.969" transform="translate(-8.422)" fill="none" stroke="#aaa" stroke-linecap="round" stroke-linejoin="round" stroke-width="3"/><path d="M18,31.5v1.469" transform="translate(-8.422 -15.313)" fill="none" stroke="#aaa" stroke-linecap="round" stroke-linejoin="round" stroke-width="3"/><path d="M6.33,6.33,7.373,7.373" transform="translate(-2.465 -2.465)" fill="none" stroke="#aaa" stroke-linecap="round" stroke-linejoin="round" stroke-width="3"/><path d="M27.54,27.54l1.043,1.043" transform="translate(-13.292 -13.292)" fill="none" stroke="#aaa" stroke-linecap="round" stroke-linejoin="round" stroke-width="3"/><path d="M1.5,18H2.969" transform="translate(0 -8.422)" fill="none" stroke="#aaa" stroke-linecap="round" stroke-linejoin="round" stroke-width="3"/><path d="M31.5,18h1.469" transform="translate(-15.313 -8.422)" fill="none" stroke="#aaa" stroke-linecap="round" stroke-linejoin="round" stroke-width="3"/><path d="M6.33,28.583,7.373,27.54" transform="translate(-2.465 -13.292)" fill="none" stroke="#aaa" stroke-linecap="round" stroke-linejoin="round" stroke-width="3"/><path d="M27.54,7.373,28.583,6.33" transform="translate(-13.292 -2.465)" fill="none" stroke="#aaa" stroke-linecap="round" stroke-linejoin="round" stroke-width="3"/></svg>